<svg xmlns="http://www.w3.org/2000/svg" height="290" width="1000">
<style type="text/css">
.label {fill:#000;stroke:none;font-family:arial;font-size:10pt;font-style: normal;}
.target {fill:#a00;stroke:none;font-family:arial;font-size:10pt;font-style: normal;}
.labeld {fill:#aaa;stroke:none;font-family:arial;font-size:10pt;font-style: normal;}
.smalllabel {fill:#0000f0;font-size:8pt;font-family:arial;text-anchor:middle;alignment-baseline:centre;}
.arrow {stroke:blue;stroke-width:2;fill:none;}
</style>
  <defs>
    <marker id="arrow" markerWidth="10" markerHeight="10" refX="0" refY="3" orient="auto" markerUnits="strokeWidth">
    	<g transform="matrix(0.5,0,0,0.5,0,1.5)">
	      <path d="M0,0 L0,6 L9,3 z" fill="#00f"/>
    	</g>
    </marker>
  </defs>
<text class="label" x="40" y="20">Simulator fails unit test?	</text>
<text class="label" x="7" y="20">1.</text>
<text class="target" x="90" y="35">	Fix simulator code, goto 1</text>
<text class="label" x="7" y="35">2.</text>
<text class="label" x="40" y="50">Model fails unit test?	</text>
<text class="label" x="7" y="50">3.</text>
<text class="target" x="90" y="65">	Fix model implementation code, goto 3</text>
<text class="label" x="7" y="65">4.</text>
<text class="label" x="40" y="80">Operators fails unit test?	</text>
<text class="label" x="7" y="80">5.</text>
<text class="target" x="90" y="95">	Fix code (especially Hasting ratios), goto 5</text>
<text class="label" x="7" y="95">6.</text>
<text class="label" x="40" y="110">Perform well calibrated study -- coverage OK?	</text>
<text class="label" x="7" y="110">7.</text>
<text class="target" x="90" y="125">	Perform sensitivity study under different models </text>
<text class="label" x="7" y="125">8.</text>
<text class="target" x="90" y="140">	Report results </text>
<text class="label" x="7" y="140">9.</text>
<text class="label" x="40" y="155">Minimum ESS &lt; 100?</text>
<text class="label" x="0" y="155">10.</text>
<text class="target" x="90" y="170">	run MCMCs longer, goto 7</text>
<text class="label" x="0" y="170">11.</text>
<text class="label" x="40" y="185">Are tree heights irrecoverable?</text>
<text class="label" x="0" y="185">12.</text>
<text class="target" x="90" y="200">	Simulate trees with tree heights of about 0.5 substitutions (change tree priors appropriately). goto 7</text>
<text class="label" x="0" y="200">13.</text>
<text class="label" x="40" y="215">Some other parameter is not recoverable -- Are priors in reasonable range?</text>
<text class="label" x="0" y="215">14.</text>
<text class="target" x="90" y="230">	Check Hasting ratios, model code. goto 7</text>
<text class="label" x="0" y="230">15.</text>
<text class="target" x="40" y="245">Tighten parameter priors. goto 7</text>
<text class="label" x="0" y="245">16.</text>
<path d="M 70 22 c 0 8,0 8, 10 8" class="arrow" marker-end="url(#arrow)"/>
<text x="58" y="34" class="smalllabel">yes</text>
<path d="M 42 25 L 42 30" class="arrow" marker-end="url(#arrow)"/>
<text x="30" y="34" class="smalllabel">no</text>
<path d="M 70 52 c 0 8,0 8, 10 8" class="arrow" marker-end="url(#arrow)"/>
<text x="58" y="64" class="smalllabel">yes</text>
<path d="M 42 55 L 42 60" class="arrow" marker-end="url(#arrow)"/>
<text x="30" y="64" class="smalllabel">no</text>
<path d="M 70 82 c 0 8,0 8, 10 8" class="arrow" marker-end="url(#arrow)"/>
<text x="58" y="94" class="smalllabel">yes</text>
<path d="M 42 85 L 42 90" class="arrow" marker-end="url(#arrow)"/>
<text x="30" y="94" class="smalllabel">no</text>
<path d="M 70 112 c 0 8,0 8, 10 8" class="arrow" marker-end="url(#arrow)"/>
<text x="58" y="124" class="smalllabel">yes</text>
<path d="M 42 115 L 42 135" class="arrow" marker-end="url(#arrow)"/>
<text x="30" y="124" class="smalllabel">no</text>
<path d="M 70 119 c 0 16,0 16, 10 16" class="arrow" marker-end="url(#arrow)"/>
<text x="82" y="131" class="smalllabel">or</text>
<path d="M 70 157 c 0 8,0 8, 10 8" class="arrow" marker-end="url(#arrow)"/>
<text x="58" y="169" class="smalllabel">yes</text>
<path d="M 42 160 L 42 165" class="arrow" marker-end="url(#arrow)"/>
<text x="30" y="169" class="smalllabel">no</text>
<path d="M 70 187 c 0 8,0 8, 10 8" class="arrow" marker-end="url(#arrow)"/>
<text x="58" y="199" class="smalllabel">yes</text>
<path d="M 42 190 L 42 195" class="arrow" marker-end="url(#arrow)"/>
<text x="30" y="199" class="smalllabel">no</text>
<path d="M 70 217 c 0 8,0 8, 10 8" class="arrow" marker-end="url(#arrow)"/>
<text x="58" y="229" class="smalllabel">yes</text>
<path d="M 42 220 L 42 225" class="arrow" marker-end="url(#arrow)"/>
<text x="30" y="229" class="smalllabel">no</text>
</svg>
