<svg xmlns="http://www.w3.org/2000/svg" height="340">
<style type="text/css">
.label {fill:#000;stroke:none;font-family:arial;font-size:10pt;font-style: normal;}
.labeld {fill:#aaa;stroke:none;font-family:arial;font-size:10pt;font-style: normal;}
.smalllabel {fill:#0000f0;font-size:8pt;font-family:arial;text-anchor:middle;alignment-baseline:centre;}
.arrow {stroke:blue;stroke-width:2;fill:none;}
</style>
  <defs>
    <marker id="arrow" markerWidth="10" markerHeight="10" refX="0" refY="3" orient="auto" markerUnits="strokeWidth">
    	<g transform="matrix(0.5,0,0,0.5,0,1.5)">
	      <path d="M0,0 L0,6 L9,3 z" fill="#00f"/>
    	</g>
    </marker>
  </defs>
<text class="label" x="40" y="20">Single partition?</text>
<text class="label" x="7" y="20">1.</text>
<text class="label" x="90" y="35">	Has tip dates?</text>
<text class="label" x="7" y="35">2.</text>
<text class="label" x="140" y="50">		Clock rate = 1e-x, estimate = true, broad prior on clock rate</text>
<text class="label" x="7" y="50">3.</text>
<text class="label" x="90" y="65">	Has calibrations?</text>
<text class="label" x="7" y="65">4.</text>
<text class="label" x="140" y="80">		goto 3</text>
<text class="label" x="7" y="80">5.</text>
<text class="label" x="90" y="95">	Rate from literature?</text>
<text class="label" x="7" y="95">6.</text>
<text class="label" x="140" y="110">		Ranges available?</text>
<text class="label" x="7" y="110">7.</text>
<text class="label" x="190" y="125">			Clock rate = from literature, estimate = true, narrow prior on clock rate</text>
<text class="label" x="7" y="125">8.</text>
<text class="label" x="140" y="140">Must be: 		No range available</text>
<text class="label" x="7" y="140">9.</text>
<text class="label" x="190" y="155">			Clock rate = from literature, estimate = false</text>
<text class="label" x="0" y="155">10.</text>
<text class="label" x="90" y="170">Must be: 	No timing info</text>
<text class="label" x="0" y="170">11.</text>
<text class="label" x="140" y="185">		Clock rate = 1.0 estimate = false</text>
<text class="label" x="0" y="185">12.</text>
<text class="label" x="40" y="200">First of multiple clock partitions?</text>
<text class="label" x="0" y="200">13.</text>
<text class="label" x="90" y="215">	goto 2</text>
<text class="label" x="0" y="215">14.</text>
<text class="label" x="40" y="230">Has tree linked with a previous partition?</text>
<text class="label" x="0" y="230">15.</text>
<text class="label" x="90" y="245">	goto 3</text>
<text class="label" x="0" y="245">16.</text>
<text class="label" x="40" y="260">Must be: Clock and tree linked to first partition	</text>
<text class="label" x="0" y="260">17.</text>
<text class="label" x="90" y="275">	goto 2</text>
<text class="label" x="0" y="275">18.</text>
<path d="M 70 22 c 0 8,0 8, 10 8" class="arrow" marker-end="url(#arrow)"/>
<text x="58" y="34" class="smalllabel">yes</text>
<path d="M 42 25 L 42 180" class="arrow" marker-end="url(#arrow)"/>
<text x="30" y="34" class="smalllabel">no</text>
<path d="M 120 37 c 0 8,0 8, 10 8" class="arrow" marker-end="url(#arrow)"/>
<text x="108" y="49" class="smalllabel">yes</text>
<path d="M 92 40 L 92 45" class="arrow" marker-end="url(#arrow)"/>
<text x="80" y="49" class="smalllabel">no</text>
<path d="M 120 67 c 0 8,0 8, 10 8" class="arrow" marker-end="url(#arrow)"/>
<text x="108" y="79" class="smalllabel">yes</text>
<path d="M 92 70 L 92 75" class="arrow" marker-end="url(#arrow)"/>
<text x="80" y="79" class="smalllabel">no</text>
<path d="M 120 97 c 0 8,0 8, 10 8" class="arrow" marker-end="url(#arrow)"/>
<text x="108" y="109" class="smalllabel">yes</text>
<path d="M 92 100 L 92 150" class="arrow" marker-end="url(#arrow)"/>
<text x="80" y="109" class="smalllabel">no</text>
<path d="M 170 112 c 0 8,0 8, 10 8" class="arrow" marker-end="url(#arrow)"/>
<text x="158" y="124" class="smalllabel">yes</text>
<path d="M 142 115 L 142 120" class="arrow" marker-end="url(#arrow)"/>
<text x="130" y="124" class="smalllabel">no</text>
<path d="M 170 142 c 0 8,0 8, 10 8" class="arrow" marker-end="url(#arrow)"/>
<path d="M 120 172 c 0 8,0 8, 10 8" class="arrow" marker-end="url(#arrow)"/>
<path d="M 70 202 c 0 8,0 8, 10 8" class="arrow" marker-end="url(#arrow)"/>
<text x="58" y="214" class="smalllabel">yes</text>
<path d="M 42 205 L 42 210" class="arrow" marker-end="url(#arrow)"/>
<text x="30" y="214" class="smalllabel">no</text>
<path d="M 70 232 c 0 8,0 8, 10 8" class="arrow" marker-end="url(#arrow)"/>
<text x="58" y="244" class="smalllabel">yes</text>
<path d="M 42 235 L 42 240" class="arrow" marker-end="url(#arrow)"/>
<text x="30" y="244" class="smalllabel">no</text>
</svg>